<svg xmlns="http://www.w3.org/2000/svg" version="1.1" xmlns:xlink="http://www.w3.org/1999/xlink" xmlns:svgjs="http://svgjs.dev/svgjs" width="100%" height="100%" viewBox="0 0 1000 600"><rect width="1000" height="600" x="0" y="0" fill="#191919"/><g><rect width="333.3333333333333" height="333.3333333333333" rx="13.333333333333334" ry="13.333333333333334" y="260.08596357962733" fill="#b88746" transform="matrix(0.525510974745879,0,0,0.525510974745879,0,75.73681197678938)" x="237.8637237548828"/><path d="M369.42897424521584 470.54045923085386L369.42897424521584 470.54045923085386Q369.42897424521584 465.7801128091931 369.96880734457943 461.7313645639662Q370.5331783120959 457.6826163187393 371.6619202471289 453.09403497414877L371.6619202471289 453.09403497414877L389.0101930312224 453.09403497414877L389.0101930312224 459.67018363912337Q389.0101930312224 471.57104969327526 392.6172596496973 477.901819676721Q396.2488641363251 484.2571275283196 403.75745179110953 484.2571275283196L403.75745179110953 484.2571275283196Q416.68890830768277 484.2571275283196 416.68890830768277 471.57104969327526L416.68890830768277 471.57104969327526Q416.68890830768277 466.63893819454427 414.5786516465342 461.21606933275547Q412.4683949853856 455.76866260281383 406.33392794716303 447.91654479388893L406.33392794716303 447.91654479388893L383.04749107007 418.6919438237964Q376.9130240318474 410.74167454225994 373.5267982267485 402.8159431288763Q370.1160345534968 394.86567384733985 370.1160345534968 385.1241401906423L370.1160345534968 385.1241401906423Q370.1160345534968 370.45049503521386 379.2195836382191 361.10156726896264Q388.2985948547886 351.7526395027114 404.4445120993904 351.7526395027114L404.4445120993904 351.7526395027114Q417.47412008857526 351.7526395027114 424.88455627074813 356.43937231991345Q432.29499245292106 361.1506430052684 435.3622259720324 368.3157005059124Q438.4294594911437 375.4562201384035 438.4294594911437 382.96480779318796L438.4294594911437 382.96480779318796Q438.4294594911437 387.7251542148487 437.693323446557 391.72482672376987Q436.95718740197026 395.7490371008439 436.0247484121604 400.5584592588104L436.0247484121604 400.5584592588104L418.75008923252557 400.5584592588104L418.75008923252557 393.491553230778Q418.75008923252557 381.8606037263079 415.0448711414391 375.5543716110151Q411.3396530503527 369.2481394957223 404.4445120993904 369.2481394957223L404.4445120993904 369.2481394957223Q398.1382799840976 369.2481394957223 394.89928138791606 372.75705464158557Q391.68482065988746 376.241431919296 391.68482065988746 382.1059824078368L391.68482065988746 382.1059824078368Q391.68482065988746 387.11170751102645 393.74600158473027 391.20953149255917Q395.80718250957307 395.3073554740919 398.9971053694488 399.62602026900055L398.9971053694488 399.62602026900055L424.9827077433597 432.5803771983324Q432.12322737585083 441.80661562381914 435.8775212032431 450.124952927649Q439.63181503063527 458.44329023147884 439.63181503063527 468.6265055149284L439.63181503063527 468.6265055149284Q439.63181503063527 483.9135973741791 429.8902813739378 492.8208435136783Q420.1487477172403 501.75262752133045 403.92921686817976 501.75262752133045L403.92921686817976 501.75262752133045Q390.6296923293131 501.75262752133045 383.0965668063758 497.2376597811986Q375.5389034152855 492.6981541729139 372.47166989617426 485.5330966722699Q369.42897424521584 478.39257703977876 369.42897424521584 470.54045923085386Z " fill="#191919" transform="matrix(0.525510974745879,0,0,0.525510974745879,0,75.73681197678938)"/><path d="M654.5303955772547 451.14582935106915L654.5303955772547 451.14582935106915Q654.5303955772547 447.61427634539353 654.9308809696508 444.6106359024221Q655.3495702435196 441.6069954594506 656.1869487912571 438.2028696240829L656.1869487912571 438.2028696240829L669.0570929923531 438.2028696240829L669.0570929923531 443.0815098587275Q669.0570929923531 451.9103923729164 671.7330635688186 456.60699379283545Q674.4272380267566 461.32179909422706 679.9976257573584 461.32179909422706L679.9976257573584 461.32179909422706Q689.5910712933946 461.32179909422706 689.5910712933946 451.9103923729164L689.5910712933946 451.9103923729164Q689.5910712933946 448.25141219693296 688.025537486755 444.22835439149844Q686.4600036801153 440.18709270459135 681.9090333119766 434.36185063337393L681.9090333119766 434.36185063337393L664.6335497945224 412.68102779956155Q660.0825794263837 406.7829702024539 657.5704437831713 400.9031164868188Q655.0401042584863 395.00505888971117 655.0401042584863 387.77811794510706L655.0401042584863 387.77811794510706Q655.0401042584863 376.8921968245195 661.7937442848039 369.95651798347626Q668.529180429649 363.020839142433 680.5073344385899 363.020839142433L680.5073344385899 363.020839142433Q690.1735955005163 363.020839142433 695.6711677052278 366.49778050369093Q701.1687399099392 369.99292574642135 703.4442250940085 375.30845913640724Q705.7197102780779 380.6057886449206 705.7197102780779 386.1761763755223L705.7197102780779 386.1761763755223Q705.7197102780779 389.70772938119785 705.1735938339011 392.6749620612242Q704.6274773897246 395.66039862272316 703.9357298937675 399.2283593913438L703.9357298937675 399.2283593913438L691.1201973370892 399.2283593913438L691.1201973370892 393.9856415272481Q691.1201973370892 385.3570017092573 688.3714112347334 380.67860417081084Q685.6226251323777 376.0002066323643 680.5073344385899 376.0002066323643L680.5073344385899 376.0002066323643Q675.8289369001434 376.0002066323643 673.4260245457663 378.60336168293964Q671.0413160728616 381.1883128520424 671.0413160728616 385.53904052398286L671.0413160728616 385.53904052398286Q671.0413160728616 389.252632344384 672.5704421165561 392.29268055030053Q674.0995681602508 395.33272875621714 676.4660727516828 398.5366118953867L676.4660727516828 398.5366118953867L695.7439832311179 422.9844247130274Q701.0413127396314 429.8290841467079 703.8265066049321 436.00019996590385Q706.611700470233 442.1713157850998 706.611700470233 449.7259265962099L706.611700470233 449.7259265962099Q706.611700470233 461.0669447536113 699.3847595256289 467.6749537281486Q692.1578185810247 474.3011665841584 680.1250529276663 474.3011665841584L680.1250529276663 474.3011665841584Q670.2585491695418 474.3011665841584 664.6699575574676 470.9516523932084Q659.0631620639208 467.58393432078583 656.7876768798515 462.26840093079994Q654.5303955772547 456.97107142228657 654.5303955772547 451.14582935106915ZM726.5267468012075 372.92375066350263L726.5267468012075 372.92375066350263Q722.0485919589592 372.92375066350263 719.318009738076 370.12035291672925Q716.6056313986654 367.2987512884833 716.6056313986654 362.1834605946955L716.6056313986654 362.1834605946955Q716.6056313986654 356.48564569378595 719.318009738076 354.11914110235386Q722.0485919589592 351.7526365109218 726.5813584456253 351.7526365109218L726.5813584456253 351.7526365109218Q731.3143676284894 351.7526365109218 733.9721343234824 354.3011799170794Q736.6299010184753 356.8679272047096 736.6299010184753 362.1834605946955L736.6299010184753 362.1834605946955Q736.6299010184753 367.17132411817545 733.9357265605372 370.047537390839Q731.2597559840717 372.92375066350263 726.5267468012075 372.92375066350263ZM718.5170389532836 473.28174922169535L718.5170389532836 385.15675901305923L734.7184934638572 385.15675901305923L734.7184934638572 473.28174922169535L718.5170389532836 473.28174922169535ZM751.229413959464 473.28174922169535L751.229413959464 385.15675901305923L763.6444611237462 385.15675901305923L765.1735871674407 394.56816573436987L765.1735871674407 394.62277737878753Q768.9417906322594 388.5426809669544 773.7840231039589 386.3400113087753Q778.6080516941859 384.13734165059617 783.4866919288305 384.13734165059617L783.4866919288305 384.13734165059617Q794.0449431829121 384.13734165059617 797.6857194774229 394.113068697556L797.6857194774229 394.113068697556Q801.4539229422417 388.4152537966465 806.1687282436333 386.2853996643576Q810.8653296635524 384.13734165059617 815.6711543723068 384.13734165059617L815.6711543723068 384.13734165059617Q823.2803768278345 384.13734165059617 827.5036773294671 389.58030221088995Q831.7269778310998 395.00505888971117 831.7269778310998 405.76355283999084L831.7269778310998 405.76355283999084L831.7269778310998 473.28174922169535L815.5437272019989 473.28174922169535L815.5437272019989 407.67496039460906Q815.5437272019989 401.8679222048642 813.7779506991611 399.59243702079493Q812.0121741963233 397.3169518367256 808.061931916779 397.3169518367256L808.061931916779 397.3169518367256Q805.8774661400724 397.3169518367256 803.6019809560032 398.9735050507281Q801.3264957719339 400.6482621462031 799.4696998617333 403.45165989297647L799.4696998617333 403.45165989297647Q799.5425153876236 404.0341841000982 799.5425153876236 404.61670830721994Q799.5425153876236 405.18102863286913 799.5425153876236 405.76355283999084L799.5425153876236 405.76355283999084L799.5425153876236 473.28174922169535L783.34106087705 473.28174922169535L783.34106087705 407.67496039460906Q783.34106087705 401.8679222048642 781.5934882556849 399.59243702079493Q779.8277117528471 397.3169518367256 775.8592655918301 397.3169518367256L775.8592655918301 397.3169518367256Q773.6930036965962 397.3169518367256 771.453926275472 398.91889340631036Q769.2148488543478 400.5208349758952 767.4126645885649 403.32423272266857L767.4126645885649 403.32423272266857L767.4126645885649 473.28174922169535L751.229413959464 473.28174922169535ZM863.7294014598506 467.45650715047793L864.239110141082 478.26961274517527L864.239110141082 501.75261984477055L848.0558595119811 501.75261984477055L848.0558595119811 385.15675901305923L860.725761016879 385.15675901305923L862.2002754161559 394.440738564062Q864.4393528372801 390.7817583880786 868.3349834724067 387.4868558415462Q872.248817989006 384.19195329501383 878.5109532155648 384.19195329501383L878.5109532155648 384.19195329501383Q880.5679918219635 384.19195329501383 883.60804002788 384.99292407980624Q886.6480882337967 385.7938948645986 889.6881364397132 388.77933142609754Q892.7281846456298 391.7465641061239 894.7670193705559 398.1543303844631Q896.8240579769545 404.5438927813297 896.8240579769545 415.81209541284096L896.8240579769545 415.81209541284096L896.8240579769545 442.4989856516058Q896.8240579769545 453.69437275722674 894.7306116076109 460.1385467985111Q892.6553691197396 466.56451695832277 889.5607092694054 469.6045651642394Q886.4478455375985 472.6446133701559 883.2803701613741 473.4819919178935Q880.1128947851496 474.3011665841584 877.8738173640254 474.3011665841584L877.8738173640254 474.3011665841584Q872.7585266702375 474.3011665841584 869.3361969533973 472.2623318592323Q865.913867236557 470.20529325283366 863.7294014598506 467.45650715047793L863.7294014598506 467.45650715047793ZM864.239110141082 403.3970482485588L864.239110141082 454.1494697940406Q865.3313430294353 456.6434015557806 867.2245467025809 458.627624636289Q869.0995464942541 460.61184771679746 872.3762451593138 460.61184771679746L872.3762451593138 460.61184771679746Q874.742749750746 460.61184771679746 876.5631378980015 459.33757601371866Q878.3835260452569 458.0451004291673 879.4393511706651 454.5681590679094Q880.4951762960732 451.0730138251789 880.4951762960732 444.5378203765319L880.4951762960732 444.5378203765319L880.4951762960732 413.318163651101Q880.4951762960732 406.72835855803623 879.4757589336102 403.306028841196Q878.456341571147 399.88369912435576 876.6177495424191 398.5912235398044Q874.7973613951636 397.3169518367256 872.4308568037316 397.3169518367256L872.4308568037316 397.3169518367256Q869.4272163607601 397.3169518367256 867.4429932802516 399.13733998398106Q865.4587701997432 400.9577281312365 864.239110141082 403.3970482485588L864.239110141082 403.3970482485588ZM911.1505126958548 473.28174922169535L911.1505126958548 356.8679272047096L927.3519672064283 356.8679272047096L927.3519672064283 473.28174922169535L911.1505126958548 473.28174922169535ZM941.6784219253287 437.18345226161983L941.6784219253287 437.18345226161983L941.6784219253287 420.5451045957051Q941.6784219253287 410.44195037843735 943.4077906652215 403.77932975948244Q945.1371594051141 397.11670914052746 947.9769649148326 393.1482629795106Q950.8349743060237 389.17981681849375 954.2573040228638 387.2684092638755Q957.6796337397041 385.3570017092573 961.0655556935992 384.73806973919045Q964.4696815289669 384.13734165059617 967.2730792757403 384.13734165059617L967.2730792757403 384.13734165059617Q973.0983213469577 384.13734165059617 978.03157322602 386.594865649391Q982.9648251050824 389.05238964818585 985.9320577851086 395.0414666526563Q988.9174943466076 401.0305436571267 988.9174943466076 411.643406555626L988.9174943466076 411.643406555626Q988.9174943466076 416.95893994561186 988.3349701394858 422.4929199132684Q987.752445932364 428.026899880925 986.8058440957913 432.2502003825576L986.8058440957913 432.2502003825576L957.9344880803199 432.2502003825576L957.9344880803199 441.2247139485269Q957.9344880803199 452.7295670391814 959.8823033978832 457.4807801035181Q961.8483225969192 462.2137892863822 967.3458948016305 462.2137892863822L967.3458948016305 462.2137892863822Q970.3495352446021 462.2137892863822 972.7888553619243 459.61063423580697Q975.209971597774 457.02568306670423 975.209971597774 450.05359646271586L975.209971597774 450.05359646271586L975.209971597774 446.2125774720069L988.535212835684 446.2125774720069L988.535212835684 450.2356352774414Q988.535212835684 462.7781096120314 982.5461358312134 468.5123322758861Q976.5570588267431 474.24655493974075 965.2342445508142 474.24655493974075L965.2342445508142 474.24655493974075Q953.8386147489952 474.24655493974075 947.758518337162 465.5450995958597Q941.6784219253287 456.8254403705061 941.6784219253287 437.18345226161983ZM957.9344880803199 421.3824831434426L973.8082727243873 421.3824831434426Q973.9356998946953 419.9625803885834 974.0085154205854 417.12277487886485Q974.0631270650031 414.2829693691464 974.0631270650031 412.5536006292537L974.0631270650031 412.5536006292537Q974.0631270650031 403.77932975948244 972.2063311548026 400.01112629466365Q970.3495352446021 396.22471894837236 966.3264774391675 396.1701073039547L966.3264774391675 396.1701073039547Q962.0303614116447 396.1701073039547 959.9915266867185 400.48442721295004Q957.9344880803199 404.7987471219455 957.9344880803199 416.19437692376454L957.9344880803199 416.19437692376454L957.9344880803199 421.3824831434426ZM1031.4053537035497 473.28174922169535L1031.4053537035497 363.9674409790058L1073.2014655645348 363.9674409790058L1073.2014655645348 377.54753655753143L1047.9890897250468 377.54753655753143L1047.9890897250468 409.73199900100775L1067.758505004241 409.73199900100775L1067.758505004241 422.7841820168293L1047.9890897250468 422.7841820168293L1047.9890897250468 473.28174922169535L1031.4053537035497 473.28174922169535ZM1090.8592305929126 372.92375066350263L1090.8592305929126 372.92375066350263Q1086.3810757506642 372.92375066350263 1083.6686974112536 370.12035291672925Q1080.9381151903704 367.2987512884833 1080.9381151903704 362.1834605946955L1080.9381151903704 362.1834605946955Q1080.9381151903704 356.48564569378595 1083.6686974112536 354.11914110235386Q1086.3810757506642 351.7526365109218 1090.9320461188026 351.7526365109218L1090.9320461188026 351.7526365109218Q1095.665055301667 351.7526365109218 1098.32282199666 354.3011799170794Q1100.9805886916529 356.8679272047096 1100.9805886916529 362.1834605946955L1100.9805886916529 362.1834605946955Q1100.9805886916529 367.17132411817545 1098.2864142337148 370.047537390839Q1095.5922397757768 372.92375066350263 1090.8592305929126 372.92375066350263ZM1082.8677266264613 473.28174922169535L1082.8677266264613 385.15675901305923L1099.050977255562 385.15675901305923L1099.050977255562 473.28174922169535L1082.8677266264613 473.28174922169535ZM1115.561897751169 473.28174922169535L1115.561897751169 385.15675901305923L1127.9223332710335 385.15675901305923L1129.5060709591457 394.56816573436987L1129.5060709591457 394.62277737878753Q1133.292478305437 388.5426809669544 1138.0983030141915 386.3400113087753Q1142.8859238414732 384.13734165059617 1147.7463601946451 384.13734165059617L1147.7463601946451 384.13734165059617Q1155.4283981760632 384.13734165059617 1159.6516986776958 389.58030221088995Q1163.8749991793284 395.00505888971117 1163.8749991793284 405.76355283999084L1163.8749991793284 405.76355283999084L1163.8749991793284 473.28174922169535L1147.6917485502277 473.28174922169535L1147.6917485502277 407.67496039460906Q1147.6917485502277 401.8679222048642 1145.8895642844445 399.59243702079493Q1144.1055839001344 397.3169518367256 1140.646846420349 397.3169518367256L1140.646846420349 397.3169518367256Q1138.2257301844993 397.3169518367256 1135.9138372374848 398.91889340631036Q1133.6019442904703 400.5208349758952 1131.7633522617425 403.32423272266857L1131.7633522617425 403.32423272266857L1131.7633522617425 473.28174922169535L1115.561897751169 473.28174922169535ZM1195.8228111636615 424.33151194199644L1195.8228111636615 424.33151194199644Q1198.2439273995114 423.11185188333525 1201.0655290277573 421.8193762987839Q1203.8871306560031 420.5451045957051 1206.2536352474353 419.7077260479676L1206.2536352474353 419.7077260479676L1206.2536352474353 409.0220476235781Q1206.2536352474353 405.69073731410066 1205.9623731438744 402.81452404143704Q1205.6711110403135 399.9383107687734 1204.2330044039818 398.117922621518Q1202.7948977676501 396.29753447426253 1199.3361602878645 396.29753447426253L1199.3361602878645 396.29753447426253Q1195.8774228080792 396.29753447426253 1193.1286367057235 399.1009322210359Q1190.3798506033677 401.9225338492819 1190.3798506033677 409.5317563048096L1190.3798506033677 409.5317563048096L1190.3798506033677 413.0633093104852L1178.0194150835034 413.0633093104852Q1176.8725705507322 408.07544578700526 1176.8725705507322 404.3618539666042L1176.8725705507322 404.3618539666042Q1176.8725705507322 394.49535020847964 1183.334948473489 389.34365175174673Q1189.7973263962458 384.19195329501383 1199.845868969096 384.19195329501383L1199.845868969096 384.19195329501383Q1208.6201398388675 384.19195329501383 1213.5533917179296 386.66768117528125Q1218.4684397155193 389.1252051740761 1220.4526627960277 394.0766609346109Q1222.436885876536 399.04632057661826 1222.436885876536 406.65554303214606L1222.436885876536 406.65554303214606L1222.436885876536 473.28174922169535L1209.9672270678366 473.28174922169535L1208.8021786535928 465.72713841058527Q1206.2536352474353 469.4407302309864 1202.0303347458025 471.88005034830866Q1197.8070342441702 474.3011665841584 1192.2366465135683 474.3011665841584L1192.2366465135683 474.3011665841584Q1186.4660160867686 474.3011665841584 1182.7524242663676 471.3703416670771Q1179.057036327439 468.42131286852333 1177.218444298711 463.5790803968238Q1175.3980561514554 458.7550518065969 1175.3980561514554 453.0572369056874L1175.3980561514554 453.0572369056874Q1175.3980561514554 442.1713157850998 1180.5861623711335 435.74534562528805Q1185.7742685908115 429.31937546547636 1195.8228111636615 424.33151194199644ZM1199.4089758137548 461.9589349457665L1199.4089758137548 461.9589349457665Q1201.4478105386809 461.9589349457665 1203.1771792785735 460.90310982035834Q1204.9065480184663 459.84728469495013 1206.2536352474353 458.299954769783L1206.2536352474353 458.299954769783L1206.2536352474353 430.5390355241375Q1205.033975188774 431.048744205369 1203.6322763153876 431.7404917013261Q1202.2123735605282 432.4504430787557 1200.3555776503276 433.5972876115266L1200.3555776503276 433.5972876115266Q1196.9696556964325 435.70893786234296 1194.0206268978786 439.91403448250304Q1191.0898019807973 444.10092722119055 1191.0898019807973 450.5633051439474L1191.0898019807973 450.5633051439474Q1191.0898019807973 455.62398419331754 1193.0740250613057 458.79145956954204Q1195.0400442603418 461.9589349457665 1199.4089758137548 461.9589349457665ZM1238.7657675574176 473.28174922169535L1238.7657675574176 385.15675901305923L1251.1079991958095 385.15675901305923L1252.709940765394 394.56816573436987L1252.709940765394 394.62277737878753Q1256.4781442302128 388.5426809669544 1261.2839689389675 386.3400113087753Q1266.089793647722 384.13734165059617 1270.9502300008937 384.13734165059617L1270.9502300008937 384.13734165059617Q1278.6322679823118 384.13734165059617 1282.8555684839446 389.58030221088995Q1287.078868985577 395.00505888971117 1287.078868985577 405.76355283999084L1287.078868985577 405.76355283999084L1287.078868985577 473.28174922169535L1270.8956183564762 473.28174922169535L1270.8956183564762 407.67496039460906Q1270.8956183564762 401.8679222048642 1269.093434090693 399.59243702079493Q1267.3094537063828 397.3169518367256 1263.8507162265976 397.3169518367256L1263.8507162265976 397.3169518367256Q1261.4113961092753 397.3169518367256 1259.1177070437334 398.91889340631036Q1256.8058140967191 400.5208349758952 1254.9490181865185 403.32423272266857L1254.9490181865185 403.32423272266857L1254.9490181865185 473.28174922169535L1238.7657675574176 473.28174922169535ZM1296.107994195964 473.28174922169535L1296.107994195964 465.21742972935374L1320.4829914877143 397.4443790070335L1297.3822658990427 397.4443790070335L1297.3822658990427 385.15675901305923L1337.8312905310588 385.15675901305923L1337.8312905310588 393.22107850540084L1313.3834777134182 460.9941292277211L1338.2681836864 460.9941292277211L1338.2681836864 473.28174922169535L1296.107994195964 473.28174922169535ZM1363.0436663705468 467.45650715047793L1363.5533750517782 478.26961274517527L1363.5533750517782 501.75261984477055L1347.3701244226775 501.75261984477055L1347.3701244226775 385.15675901305923L1360.0400259275755 385.15675901305923L1361.5145403268523 394.440738564062Q1363.7536177479765 390.7817583880786 1367.649248383103 387.4868558415462Q1371.5630828997025 384.19195329501383 1377.825218126261 384.19195329501383L1377.825218126261 384.19195329501383Q1379.8822567326597 384.19195329501383 1382.9223049385762 384.99292407980624Q1385.962353144493 385.7938948645986 1389.0024013504096 388.77933142609754Q1392.0424495563261 391.7465641061239 1394.0812842812522 398.1543303844631Q1396.138322887651 404.5438927813297 1396.138322887651 415.81209541284096L1396.138322887651 415.81209541284096L1396.138322887651 442.4989856516058Q1396.138322887651 453.69437275722674 1394.044876518307 460.1385467985111Q1391.9696340304358 466.56451695832277 1388.8749741801016 469.6045651642394Q1385.7621104482948 472.6446133701559 1382.5946350720703 473.4819919178935Q1379.4271596958458 474.3011665841584 1377.1880822747216 474.3011665841584L1377.1880822747216 474.3011665841584Q1372.0727915809337 474.3011665841584 1368.6504618640936 472.2623318592323Q1365.2281321472535 470.20529325283366 1363.0436663705468 467.45650715047793L1363.0436663705468 467.45650715047793ZM1363.5533750517782 403.3970482485588L1363.5533750517782 454.1494697940406Q1364.6456079401316 456.6434015557806 1366.5388116132774 458.627624636289Q1368.4138114049504 460.61184771679746 1371.6905100700103 460.61184771679746L1371.6905100700103 460.61184771679746Q1374.0570146614423 460.61184771679746 1375.8774028086975 459.33757601371866Q1377.6977909559532 458.0451004291673 1378.7536160813613 454.5681590679094Q1379.8094412067694 451.0730138251789 1379.8094412067694 444.5378203765319L1379.8094412067694 444.5378203765319L1379.8094412067694 413.318163651101Q1379.8094412067694 406.72835855803623 1378.7900238443065 403.306028841196Q1377.7706064818433 399.88369912435576 1375.9320144531155 398.5912235398044Q1374.11162630586 397.3169518367256 1371.7451217144278 397.3169518367256L1371.7451217144278 397.3169518367256Q1368.7414812714562 397.3169518367256 1366.7572581909478 399.13733998398106Q1364.7730351104394 400.9577281312365 1363.5533750517782 403.3970482485588L1363.5533750517782 403.3970482485588ZM1410.4647776065513 473.28174922169535L1410.4647776065513 356.8679272047096L1426.6662321171245 356.8679272047096L1426.6662321171245 473.28174922169535L1410.4647776065513 473.28174922169535ZM1458.723267390293 424.33151194199644L1458.723267390293 424.33151194199644Q1461.1443836261428 423.11185188333525 1463.965985254389 421.8193762987839Q1466.7875868826347 420.5451045957051 1469.154091474067 419.7077260479676L1469.154091474067 419.7077260479676L1469.154091474067 409.0220476235781Q1469.154091474067 405.69073731410066 1468.8628293705058 402.81452404143704Q1468.571567266945 399.9383107687734 1467.1334606306134 398.117922621518Q1465.6953539942813 396.29753447426253 1462.236616514496 396.29753447426253L1462.236616514496 396.29753447426253Q1458.7778790347108 396.29753447426253 1456.029092932355 399.1009322210359Q1453.2803068299993 401.9225338492819 1453.2803068299993 409.5317563048096L1453.2803068299993 409.5317563048096L1453.2803068299993 413.0633093104852L1440.9380751916074 413.0633093104852Q1439.7730267773638 408.07544578700526 1439.7730267773638 404.3618539666042L1439.7730267773638 404.3618539666042Q1439.7730267773638 394.49535020847964 1446.2354047001206 389.34365175174673Q1452.6977826228774 384.19195329501383 1462.7463251957276 384.19195329501383L1462.7463251957276 384.19195329501383Q1471.5205960654987 384.19195329501383 1476.4538479445612 386.66768117528125Q1481.3688959421509 389.1252051740761 1483.3531190226593 394.0766609346109Q1485.3373421031677 399.04632057661826 1485.3373421031677 406.65554303214606L1485.3373421031677 406.65554303214606L1485.3373421031677 473.28174922169535L1472.8676832944677 473.28174922169535L1471.7208387616968 465.72713841058527Q1469.154091474067 469.4407302309864 1464.9307909724341 471.88005034830866Q1460.7074904708013 474.3011665841584 1455.1371027402 474.3011665841584L1455.1371027402 474.3011665841584Q1449.3846761948728 474.3011665841584 1445.6710843744715 471.3703416670771Q1441.9574925540703 468.42131286852333 1440.137104406815 463.5790803968238Q1438.298512378087 458.7550518065969 1438.298512378087 453.0572369056874L1438.298512378087 453.0572369056874Q1438.298512378087 442.1713157850998 1443.486618597765 435.74534562528805Q1448.6747248174431 429.31937546547636 1458.723267390293 424.33151194199644ZM1462.3094320403864 461.9589349457665L1462.3094320403864 461.9589349457665Q1464.3482667653122 461.9589349457665 1466.077635505205 460.90310982035834Q1467.8070042450977 459.84728469495013 1469.154091474067 458.299954769783L1469.154091474067 458.299954769783L1469.154091474067 430.5390355241375Q1467.9344314154057 431.048744205369 1466.532732542019 431.7404917013261Q1465.1128297871599 432.4504430787557 1463.2560338769592 433.5972876115266L1463.2560338769592 433.5972876115266Q1459.870111923064 435.70893786234296 1456.9210831245102 439.91403448250304Q1453.990258207429 444.10092722119055 1453.990258207429 450.5633051439474L1453.990258207429 450.5633051439474Q1453.990258207429 455.62398419331754 1455.9744812879374 458.79145956954204Q1457.9587043684458 461.9589349457665 1462.3094320403864 461.9589349457665ZM1501.666223784049 473.28174922169535L1501.666223784049 385.15675901305923L1514.0084554224409 385.15675901305923L1515.6103969920257 394.56816573436987L1515.6103969920257 394.62277737878753Q1519.3968043383172 388.5426809669544 1524.1844251655987 386.3400113087753Q1528.9902498743534 384.13734165059617 1533.8506862275253 384.13734165059617L1533.8506862275253 384.13734165059617Q1541.5327242089434 384.13734165059617 1545.756024710576 389.58030221088995Q1549.9793252122086 395.00505888971117 1549.9793252122086 405.76355283999084L1549.9793252122086 405.76355283999084L1549.9793252122086 473.28174922169535L1533.7960745831076 473.28174922169535L1533.7960745831076 407.67496039460906Q1533.7960745831076 401.8679222048642 1531.9938903173247 399.59243702079493Q1530.2099099330144 397.3169518367256 1526.751172453229 397.3169518367256L1526.751172453229 397.3169518367256Q1524.3118523359067 397.3169518367256 1522.018163270365 398.91889340631036Q1519.7062703233505 400.5208349758952 1517.8494744131501 403.32423272266857L1517.8494744131501 403.32423272266857L1517.8494744131501 473.28174922169535L1501.666223784049 473.28174922169535ZM1564.1965566422734 437.18345226161983L1564.1965566422734 437.18345226161983L1564.1965566422734 420.5451045957051Q1564.1965566422734 410.44195037843735 1565.9259253821663 403.77932975948244Q1567.6370902405863 397.11670914052746 1570.4950996317773 393.1482629795106Q1573.334905141496 389.17981681849375 1576.7572348583362 387.2684092638755Q1580.1977684566489 385.3570017092573 1583.5836904105442 384.73806973919045Q1586.9696123644392 384.13734165059617 1589.791213992685 384.13734165059617L1589.791213992685 384.13734165059617Q1595.6164560639024 384.13734165059617 1600.5315040614926 386.594865649391Q1605.4647559405546 389.05238964818585 1608.4501925020534 395.0414666526563Q1611.41742518208 401.0305436571267 1611.41742518208 411.643406555626L1611.41742518208 411.643406555626Q1611.41742518208 416.95893994561186 1610.8531048564307 422.4929199132684Q1610.2705806493088 428.026899880925 1609.3057749312636 432.2502003825576L1609.3057749312636 432.2502003825576L1580.4526227972647 432.2502003825576L1580.4526227972647 441.2247139485269Q1580.4526227972647 452.7295670391814 1582.4004381148281 457.4807801035181Q1584.3482534323914 462.2137892863822 1589.845825637103 462.2137892863822L1589.845825637103 462.2137892863822Q1592.8676699615469 462.2137892863822 1595.2887861973966 459.61063423580697Q1597.7281063147188 457.02568306670423 1597.7281063147188 450.05359646271586L1597.7281063147188 450.05359646271586L1597.7281063147188 446.2125774720069L1611.0351436711564 446.2125774720069L1611.0351436711564 450.2356352774414Q1611.0351436711564 462.7781096120314 1605.046066666686 468.5123322758861Q1599.0751935436876 474.24655493974075 1587.7341753862863 474.24655493974075L1587.7341753862863 474.24655493974075Q1576.3567494659399 474.24655493974075 1570.2766530541069 465.5450995958597Q1564.1965566422734 456.8254403705061 1564.1965566422734 437.18345226161983ZM1580.4526227972647 421.3824831434426L1596.3082035598597 421.3824831434426Q1596.4356307301675 419.9625803885834 1596.5084462560578 417.12277487886485Q1596.581261781948 414.2829693691464 1596.581261781948 412.5536006292537L1596.581261781948 412.5536006292537Q1596.581261781948 403.77932975948244 1594.7244658717475 400.01112629466365Q1592.8676699615469 396.22471894837236 1588.8264082746398 396.1701073039547L1588.8264082746398 396.1701073039547Q1584.5484961285895 396.1701073039547 1582.4914575221908 400.48442721295004Q1580.4526227972647 404.7987471219455 1580.4526227972647 416.19437692376454L1580.4526227972647 416.19437692376454L1580.4526227972647 421.3824831434426ZM1624.8518897088254 473.28174922169535L1624.8518897088254 385.15675901305923L1636.7026165474579 385.15675901305923L1638.1043154208448 394.113068697556Q1640.7256743528926 389.1252051740761 1644.2572273585681 386.63127341233616Q1647.770576482771 384.13734165059617 1651.411352777282 384.13734165059617L1651.411352777282 384.13734165059617Q1665.0460600002252 384.13734165059617 1665.0460600002252 401.28539799774245L1665.0460600002252 401.28539799774245Q1665.0460600002252 403.45165989297647 1664.4089241486859 407.0196206615971Q1663.7717882971465 410.56937754874525 1662.8797981049913 413.24534812521074L1662.8797981049913 413.24534812521074L1651.61159547348 413.24534812521074L1651.61159547348 406.40068869153026Q1651.61159547348 401.0851553015444 1650.0096539038952 399.21015550987124Q1648.4077123343104 397.3169518367256 1646.0412077428784 397.3169518367256L1646.0412077428784 397.3169518367256Q1643.0375672999069 397.3169518367256 1641.0533442193985 402.0499610195898L1641.0533442193985 402.0499610195898L1641.0533442193985 473.28174922169535L1624.8518897088254 473.28174922169535Z " fill="#b88746" transform="matrix(0.525510974745879,0,0,0.525510974745879,0,75.73681197678938)"/></g></svg>